<?xml version="1.0" standalone="no"?>
<!DOCTYPE svg PUBLIC "-//W3C//DTD SVG 20010904//EN"
 "http://www.w3.org/TR/2001/REC-SVG-20010904/DTD/svg10.dtd">
<svg version="1.0" xmlns="http://www.w3.org/2000/svg"
 width="438.000000pt" height="438.000000pt" viewBox="0 0 438.000000 438.000000"
 preserveAspectRatio="xMidYMid meet">
<metadata>
Created by potrace 1.14, written by Peter Selinger 2001-2017
</metadata>
<g transform="translate(0.000000,438.000000) scale(0.100000,-0.100000)"
fill="#000000" stroke="none">
<path d="M1494 4106 c-91 -38 -157 -107 -209 -222 -15 -33 -28 -66 -30 -74 -2
-8 -11 -44 -20 -80 -9 -36 -18 -77 -19 -92 -1 -17 -20 -43 -54 -76 -82 -79
-113 -184 -77 -269 9 -21 18 -42 19 -48 5 -29 117 -171 164 -208 12 -10 28
-24 35 -30 6 -7 24 -22 39 -33 l27 -21 -35 -28 c-63 -50 -89 -135 -54 -175 19
-22 29 -23 87 -4 15 5 14 2 -4 -14 -29 -26 -37 -62 -19 -87 11 -15 25 -19 64
-18 l50 1 -15 -36 c-24 -58 -66 -112 -147 -191 -42 -40 -76 -77 -76 -82 0 -5
-4 -9 -8 -9 -12 0 -71 -84 -106 -149 -29 -56 -73 -175 -82 -226 -26 -143 -30
-174 -21 -168 6 3 7 2 4 -4 -12 -19 -15 -62 -7 -97 7 -32 6 -36 -11 -36 -10 0
-21 1 -22 3 -2 1 -10 -3 -18 -9 -13 -11 -86 -29 -101 -26 -5 1 -8 -2 -8 -6 0
-5 -6 -9 -13 -9 -28 0 -164 -74 -203 -110 -53 -49 -78 -93 -98 -169 -31 -118
-17 -265 33 -360 21 -41 72 -94 90 -94 5 0 12 -7 15 -16 3 -8 10 -12 16 -9 5
3 10 2 10 -3 0 -11 146 -72 173 -72 9 0 25 -4 35 -10 18 -10 164 -46 222 -54
19 -3 55 -10 80 -15 25 -5 65 -12 90 -15 70 -10 122 -17 155 -22 25 -4 186
-15 220 -15 6 0 35 0 65 0 30 1 62 1 70 0 23 -1 209 9 281 16 92 8 140 13 264
31 22 3 57 7 79 9 21 3 46 7 55 10 9 2 32 7 51 9 19 3 46 8 60 11 14 2 48 9
75 15 82 17 78 16 217 54 126 35 245 102 322 181 44 44 100 141 112 190 11 48
17 194 8 213 -4 9 -9 28 -11 41 -5 32 -53 100 -92 132 -31 26 -32 27 -9 32 13
2 43 3 68 1 77 -6 135 -4 135 6 0 1 11 3 25 5 14 1 37 7 51 13 15 6 30 8 33 5
3 -4 6 -1 6 5 0 7 7 12 16 12 20 0 145 65 172 90 11 11 25 20 29 20 13 0 113
113 139 158 46 78 61 139 62 253 1 158 -30 254 -89 276 -79 30 -141 -27 -168
-155 -18 -88 -41 -119 -107 -147 -79 -34 -193 -36 -364 -10 -66 11 -143 11
-157 1 -7 -5 -13 -6 -13 -3 0 22 -203 -78 -212 -104 -2 -6 -20 1 -41 15 -49
34 -97 58 -97 50 0 -4 -6 -2 -12 4 -13 10 -63 23 -108 28 -38 5 -182 5 -210 1
-85 -13 -123 -21 -190 -38 -41 -11 -82 -22 -90 -25 -8 -3 -15 -4 -15 -2 -1 2
-13 -5 -28 -15 -15 -9 -27 -15 -27 -12 0 3 -9 1 -20 -5 -16 -9 -22 -7 -27 6
-4 10 -2 19 5 22 7 2 9 8 6 13 -3 6 0 16 6 24 7 8 10 15 6 15 -8 0 57 129 92
184 60 94 110 205 131 291 6 28 14 61 17 75 4 14 7 85 9 159 l2 134 54 26 c30
14 56 29 57 34 2 4 8 7 14 7 29 0 189 140 251 218 16 21 47 83 62 127 18 52
22 120 11 183 -11 58 -75 127 -128 137 -21 4 -38 10 -39 14 0 3 -2 13 -4 21
-2 8 -7 29 -10 45 -10 54 -51 165 -58 158 -4 -3 -7 2 -7 13 0 29 -77 126 -124
156 -54 35 -88 47 -147 54 -61 7 -115 -7 -207 -54 -81 -40 -67 -42 -158 19
-97 64 -217 77 -320 35z"/>
</g>
</svg>
